# Blender 3.3.1
# www.blender.org
mtllib SpaceShip_rotate.mtl.mtl
o Cube
v 1.354856 0.010406 1.964394
v 1.346720 0.013932 -2.096542
v 0.000000 0.000000 2.409013
v 0.000000 0.250000 2.409013
v -0.000000 0.000000 -3.938570
v -0.000000 0.025000 -3.938570
v 0.844968 0.000000 0.385312
v 0.893179 0.235026 0.004750
v 0.844968 0.256540 0.385312
v 0.893179 0.001392 -0.062305
v 1.662824 0.194621 0.702659
v 1.662824 0.240924 0.702659
v 1.717783 0.248496 -0.383726
v 1.717783 0.202193 -0.383726
v 2.003660 0.205820 0.757355
v 1.993626 0.231886 0.834401
v 2.511901 0.286350 -0.094153
v 2.558471 0.227550 -0.130552
v 2.225650 0.067857 0.948880
v 2.228560 0.046783 0.945756
v 1.759775 0.194106 0.730907
v 1.713205 0.252906 0.767306
v 1.847097 0.201386 -0.304832
v 1.733649 0.184623 0.575602
v 1.733649 0.230926 0.575602
v 1.800526 0.260186 -0.268433
v 2.973170 0.067857 0.050698
v 2.976080 0.046783 0.047574
v 2.666740 0.153524 0.809544
v 1.956061 0.230912 0.900327
v 3.180705 0.221514 0.031397
v 1.975964 0.189366 0.853758
v 2.666740 0.102027 0.809544
v 3.180705 0.139593 0.031397
v 4.842967 0.000000 1.279373
v 0.064427 0.249688 2.355196
v 0.152568 0.000000 -3.825730
v 0.064427 0.000000 2.355196
v 0.134219 0.037500 -3.795151
v 0.116298 0.000000 2.263950
v 0.606843 0.250000 -2.089997
v 0.116298 0.250000 2.263950
v 0.621355 0.000000 -2.138814
v 0.764871 0.250000 0.557761
v 0.875202 0.228575 0.190558
v 0.296447 0.510108 -0.676416
v 0.918259 0.252312 0.211106
v 0.702897 0.000000 0.178385
v 0.764871 0.009580 0.557761
v 0.241953 0.000000 -0.695389
v 0.917554 0.000000 0.212104
v 0.296447 0.387616 -0.904036
v 0.705171 0.219219 -0.062737
v 0.142793 0.050000 -3.529876
v 0.207045 0.050000 -3.532405
v -0.000000 0.050000 -3.554064
v 0.265557 0.000000 -3.419141
v 0.917364 0.000000 0.329350
v 0.918245 0.250000 0.331093
v 0.924187 0.276527 -0.100260
v 0.926283 0.000000 0.048604
v 0.347122 0.733690 0.470422
v 0.000000 1.084782 0.246385
v 0.174831 0.000000 0.458016
v 0.000000 -0.323639 0.482215
v 1.235476 0.393322 -0.037818
v 1.040259 0.078781 -0.802616
v 0.916851 0.000000 -0.204212
v 0.928890 0.000000 0.494285
v 0.929329 0.250000 0.495155
v -0.000000 0.324433 -1.117719
v -0.000000 1.033844 -0.358707
v 1.696169 0.246021 0.031240
v 1.674903 0.221029 -0.598329
v 1.287910 1.522113 0.501636
v 1.697170 0.199353 0.023740
v 1.342768 -0.368365 0.190660
v -1.354856 0.010406 1.964394
v -1.346720 0.013932 -2.096542
v -0.844968 0.000000 0.385312
v -0.893179 0.235026 0.004750
v -0.844968 0.256540 0.385312
v -0.893179 0.001392 -0.062305
v -1.662824 0.194621 0.702659
v -1.662824 0.240924 0.702659
v -1.717783 0.248496 -0.383726
v -1.717783 0.202193 -0.383726
v -2.003660 0.205820 0.757355
v -1.993626 0.231886 0.834401
v -2.511901 0.286350 -0.094152
v -2.558471 0.227550 -0.130552
v -2.225650 0.067857 0.948880
v -2.228560 0.046783 0.945756
v -1.759775 0.194106 0.730907
v -1.713205 0.252906 0.767306
v -1.847097 0.201386 -0.304832
v -1.733649 0.184623 0.575602
v -1.733649 0.230926 0.575602
v -1.800526 0.260186 -0.268433
v -2.973170 0.067857 0.050698
v -2.976080 0.046783 0.047574
v -2.666740 0.153524 0.809544
v -1.956061 0.230912 0.900327
v -3.180705 0.221514 0.031397
v -1.975964 0.189366 0.853758
v -2.666740 0.102027 0.809544
v -3.180705 0.139593 0.031397
v -4.842967 0.000000 1.279374
v -0.064426 0.249688 2.355196
v -0.152568 0.000000 -3.825730
v -0.064426 0.000000 2.355196
v -0.134219 0.037500 -3.795151
v -0.116298 0.000000 2.263950
v -0.606844 0.250000 -2.089997
v -0.116298 0.250000 2.263950
v -0.621355 0.000000 -2.138814
v -0.764871 0.250000 0.557761
v -0.875202 0.228575 0.190559
v -0.296447 0.510108 -0.676416
v -0.918259 0.252312 0.211106
v -0.702897 0.000000 0.178385
v -0.764871 0.009580 0.557761
v -0.241953 0.000000 -0.695389
v -0.917554 0.000000 0.212104
v -0.296447 0.387616 -0.904036
v -0.705171 0.219219 -0.062737
v -0.142794 0.050000 -3.529876
v -0.207046 0.050000 -3.532405
v -0.265558 0.000000 -3.419141
v -0.917364 0.000000 0.329350
v -0.918245 0.250000 0.331093
v -0.924187 0.276527 -0.100260
v -0.926283 0.000000 0.048604
v -0.347122 0.733690 0.470422
v -0.174831 0.000000 0.458016
v -1.235476 0.393322 -0.037818
v -1.040259 0.078781 -0.802615
v -0.916851 0.000000 -0.204212
v -0.928890 0.000000 0.494285
v -0.929329 0.250000 0.495155
v -1.696169 0.246021 0.031241
v -1.674903 0.221029 -0.598329
v -1.287910 1.522113 0.501636
v -1.697170 0.199353 0.023740
v -1.342768 -0.368365 0.190660
vn -0.0351 0.9990 0.0259
vn -0.0000 -1.0000 -0.0000
vn -0.7538 0.6560 0.0367
vn 0.6411 -0.0000 0.7675
vn 0.6031 -0.0038 0.7976
vn -0.0876 0.9961 0.0109
vn 0.0567 -0.9983 0.0159
vn 0.9893 0.0614 -0.1322
vn -1.0000 -0.0000 -0.0000
vn -0.3892 0.8845 -0.2570
vn 0.8274 -0.5540 0.0920
vn 0.9767 -0.0731 -0.2016
vn 0.9715 -0.0000 0.2371
vn -0.3366 -0.9064 -0.2552
vn -0.1141 -0.8220 0.5580
vn 0.3799 0.8791 0.2877
vn -0.9061 -0.4198 0.0529
vn 0.1671 0.6112 -0.7736
vn 0.5775 0.4837 -0.6577
vn -0.0581 -0.9982 -0.0173
vn 0.8735 -0.0000 0.4869
vn -0.0065 0.9998 0.0186
vn 0.6004 -0.0000 -0.7997
vn 0.0491 -0.9988 -0.0010
vn -0.5251 -0.6381 0.5631
vn -0.9125 0.2229 -0.3429
vn 0.5025 0.6130 -0.6097
vn -0.1019 0.0273 -0.9944
vn 0.2601 -0.9497 0.1744
vn 0.3031 -0.0289 0.9525
vn -0.2110 -0.0000 0.9775
vn 0.0449 0.9922 0.1163
vn -0.0318 -0.9971 -0.0692
vn 0.5688 0.4901 -0.6605
vn 0.8103 -0.5815 0.0726
vn -0.0103 0.9983 -0.0575
vn 0.8693 -0.0000 0.4942
vn 0.9323 -0.0000 0.3617
vn 0.8305 0.5028 -0.2399
vn -0.0019 0.9989 -0.0470
vn -0.5765 0.7872 -0.2191
vn 0.6304 0.7562 -0.1753
vn -0.4546 0.8690 -0.1954
vn -0.0246 -0.9996 0.0169
vn 0.0063 -1.0000 -0.0008
vn 0.8471 0.3538 -0.3965
vn -0.5762 0.7339 0.3597
vn 0.1481 0.9860 -0.0766
vn -0.0789 0.9900 -0.1173
vn 0.7940 0.5966 -0.1165
vn -0.9976 0.0023 0.0686
vn 0.1861 -0.1548 -0.9702
vn -0.5917 -0.7916 0.1524
vn 0.1030 0.9945 0.0192
vn -0.0356 -0.9994 -0.0019
vn 0.7240 0.6369 0.2649
vn 0.5476 0.7835 0.2936
vn 0.6335 -0.7734 -0.0252
vn 0.4333 0.6890 -0.5810
vn -0.0195 -0.4304 0.9024
vn -0.9992 0.0125 0.0373
vn -0.9605 0.0007 0.2783
vn -0.9787 -0.0202 -0.2045
vn 0.8496 0.4643 -0.2503
vn 0.9460 0.1712 -0.2751
vn -0.1796 0.9706 0.1604
vn 0.1096 0.9842 0.1393
vn -0.8883 0.3823 -0.2544
vn 0.7845 0.0562 0.6176
vn 0.7948 -0.6017 -0.0788
vn -0.5885 -0.8004 -0.1143
vn -0.9020 0.3643 -0.2319
vn 0.0351 0.9990 0.0259
vn 0.7538 0.6560 0.0367
vn -0.6411 -0.0000 0.7675
vn -0.6031 -0.0038 0.7976
vn 0.0876 0.9961 0.0109
vn -0.0567 -0.9983 0.0159
vn -0.9893 0.0614 -0.1322
vn 0.3892 0.8845 -0.2570
vn -0.8274 -0.5540 0.0920
vn -0.9767 -0.0731 -0.2016
vn -0.9715 -0.0000 0.2371
vn 0.3366 -0.9064 -0.2552
vn 0.1141 -0.8220 0.5580
vn -0.3799 0.8791 0.2877
vn 0.9061 -0.4198 0.0529
vn -0.1671 0.6112 -0.7736
vn -0.5775 0.4837 -0.6577
vn 0.0581 -0.9982 -0.0173
vn -0.8735 -0.0000 0.4869
vn 0.0065 0.9998 0.0186
vn -0.6004 -0.0000 -0.7997
vn -0.0491 -0.9988 -0.0010
vn 0.5251 -0.6381 0.5631
vn 0.9125 0.2229 -0.3429
vn -0.5025 0.6130 -0.6097
vn 0.1019 0.0273 -0.9944
vn -0.2601 -0.9497 0.1744
vn -0.3031 -0.0289 0.9525
vn 0.2110 -0.0000 0.9775
vn -0.0449 0.9922 0.1163
vn 0.0318 -0.9971 -0.0692
vn -0.5688 0.4901 -0.6605
vn -0.8103 -0.5815 0.0726
vn 0.0103 0.9983 -0.0575
vn -0.8693 -0.0000 0.4942
vn -0.9323 -0.0000 0.3617
vn -0.8305 0.5028 -0.2399
vn 0.0019 0.9989 -0.0470
vn 0.5765 0.7872 -0.2191
vn -0.6304 0.7562 -0.1753
vn 0.4546 0.8690 -0.1954
vn 0.0246 -0.9996 0.0169
vn -0.0063 -1.0000 -0.0008
vn -0.8471 0.3538 -0.3965
vn 0.5762 0.7339 0.3597
vn -0.1481 0.9860 -0.0766
vn 0.0789 0.9900 -0.1173
vn -0.7940 0.5966 -0.1165
vn 0.9976 0.0023 0.0686
vn -0.1861 -0.1548 -0.9702
vn 0.5917 -0.7916 0.1524
vn -0.1030 0.9945 0.0192
vn 0.0356 -0.9994 -0.0019
vn -0.7240 0.6369 0.2649
vn -0.5476 0.7835 0.2936
vn -0.6335 -0.7734 -0.0252
vn -0.4333 0.6890 -0.5810
vn 0.0195 -0.4304 0.9024
vn 0.9992 0.0125 0.0373
vn 0.9605 0.0007 0.2783
vn 0.9787 -0.0202 -0.2045
vn -0.8496 0.4643 -0.2503
vn -0.9460 0.1712 -0.2751
vn 0.1796 0.9706 0.1604
vn -0.1096 0.9842 0.1393
vn 0.8883 0.3823 -0.2544
vn -0.7845 0.0562 0.6176
vn -0.7948 -0.6017 -0.0788
vn 0.5885 -0.8004 -0.1143
vn 0.9020 0.3643 -0.2319
vt 0.125000 0.750000
vt 0.375000 0.000000
vt 0.125000 0.742069
vt 0.625000 0.007798
vt 0.875000 0.750000
vt 0.375000 0.742174
vt 0.625000 0.750000
vt 0.375000 0.750000
vt 0.625000 0.742174
vt 0.375000 0.125000
vt 0.125000 0.625000
vt 0.625000 0.125000
vt 0.875000 0.625000
vt 0.375000 0.625000
vt 0.625000 0.625000
vt 0.375000 0.062500
vt 0.125000 0.687500
vt 0.625000 0.687500
vt 0.625000 0.062500
vt 0.875000 0.687500
vt 0.375000 0.687500
vt 0.125000 0.750000
vt 0.375000 0.000000
vt 0.625000 0.000000
vt 0.875000 0.750000
vt 0.625000 0.750000
vt 0.375000 0.750000
vt 0.125000 0.750000
vt 0.375000 0.000000
vt 0.875000 0.750000
vt 0.625000 0.000000
vt 0.625000 0.750000
vt 0.375000 0.750000
vt 0.875000 0.750000
vt 0.625000 0.000000
vt 0.125000 0.750000
vt 0.375000 0.000000
vt 0.375000 0.000000
vt 0.125000 0.750000
vt 0.875000 0.750000
vt 0.625000 0.000000
vt 0.375000 0.750000
vt 0.375000 0.000000
vt 0.125000 0.750000
vt 0.625000 0.000000
vt 0.875000 0.750000
vt 0.625000 0.750000
vt 0.625000 0.750000
vt 0.375000 0.750000
vt 0.625000 0.000000
vt 0.875000 0.750000
vt 0.875000 0.750000
vt 0.625000 0.000000
vt 0.625000 0.750000
vt 0.125000 0.750000
vt 0.375000 0.000000
vt 0.375000 0.000000
vt 0.125000 0.750000
vt 0.375000 0.750000
vt 0.375000 0.750000
vt 0.625000 0.000000
vt 0.625000 0.750000
vt 0.125000 0.750000
vt 0.625000 0.093750
vt 0.875000 0.656250
vt 0.375000 0.656250
vt 0.375000 0.093750
vt 0.125000 0.656250
vt 0.625000 0.656250
vt 0.375000 0.078125
vt 0.125000 0.671875
vt 0.625000 0.671875
vt 0.625000 0.078125
vt 0.875000 0.671875
vt 0.375000 0.671875
vt 0.625000 0.067547
vt 0.875000 0.682453
vt 0.789295 0.671875
vt 0.804786 0.656250
vt 0.785398 0.687500
vt 0.788212 0.718750
vt 0.205848 0.671875
vt 0.375000 0.067943
vt 0.125000 0.682057
vt 0.191640 0.656250
vt 0.180705 0.687500
vt 0.201960 0.718381
vt 0.796463 0.656250
vt 0.771370 0.671875
vt 0.638178 0.656250
vt 0.625000 0.658658
vt 0.640144 0.625000
vt 0.375000 0.660016
vt 0.375000 0.031250
vt 0.125000 0.718217
vt 0.625000 0.031250
vt 0.875000 0.718750
vt 0.625000 0.735143
vt 0.625000 0.734348
vt 0.625000 0.718750
vt 0.625000 0.735425
vt 0.375000 0.718750
vt 0.831339 0.656250
vt 0.800067 0.625000
vt 0.800171 0.625000
vt 0.166444 0.656250
vt 0.375000 0.274659
vt 0.199829 0.625000
vt 0.740724 0.750000
vt 0.749308 0.750000
vt 0.525550 0.738110
vt 0.625000 0.738110
vt 0.375000 0.734348
vt 0.125000 0.734139
vt 0.375000 0.015595
vt 0.625000 0.015595
vt 0.875000 0.734405
vt 0.742665 0.625000
vt 0.774604 0.625000
vt 0.723318 0.750000
vt 0.625000 0.750000
vt 0.709499 0.750000
vt 0.281234 0.750000
vt 0.235704 0.750000
vt 0.125000 0.750000
vt 0.375000 0.000000
vt 0.125000 0.742069
vt 0.625000 0.007798
vt 0.875000 0.750000
vt 0.375000 0.742174
vt 0.625000 0.750000
vt 0.375000 0.750000
vt 0.625000 0.742174
vt 0.375000 0.062500
vt 0.125000 0.687500
vt 0.625000 0.687500
vt 0.625000 0.062500
vt 0.875000 0.687500
vt 0.375000 0.687500
vt 0.125000 0.750000
vt 0.375000 0.000000
vt 0.625000 0.000000
vt 0.875000 0.750000
vt 0.625000 0.750000
vt 0.375000 0.750000
vt 0.125000 0.750000
vt 0.375000 0.000000
vt 0.875000 0.750000
vt 0.625000 0.000000
vt 0.625000 0.750000
vt 0.375000 0.750000
vt 0.875000 0.750000
vt 0.625000 0.000000
vt 0.125000 0.750000
vt 0.375000 0.000000
vt 0.375000 0.000000
vt 0.125000 0.750000
vt 0.875000 0.750000
vt 0.625000 0.000000
vt 0.375000 0.750000
vt 0.375000 0.000000
vt 0.125000 0.750000
vt 0.625000 0.000000
vt 0.875000 0.750000
vt 0.625000 0.750000
vt 0.625000 0.750000
vt 0.375000 0.750000
vt 0.625000 0.000000
vt 0.875000 0.750000
vt 0.875000 0.750000
vt 0.625000 0.000000
vt 0.625000 0.750000
vt 0.125000 0.750000
vt 0.375000 0.000000
vt 0.375000 0.000000
vt 0.125000 0.750000
vt 0.375000 0.750000
vt 0.375000 0.750000
vt 0.625000 0.000000
vt 0.625000 0.750000
vt 0.125000 0.750000
vt 0.625000 0.093750
vt 0.875000 0.656250
vt 0.375000 0.656250
vt 0.375000 0.093750
vt 0.125000 0.656250
vt 0.625000 0.656250
vt 0.375000 0.078125
vt 0.125000 0.671875
vt 0.625000 0.671875
vt 0.625000 0.078125
vt 0.875000 0.671875
vt 0.375000 0.671875
vt 0.625000 0.067547
vt 0.875000 0.682453
vt 0.789295 0.671875
vt 0.804786 0.656250
vt 0.785398 0.687500
vt 0.788212 0.718750
vt 0.205848 0.671875
vt 0.375000 0.067943
vt 0.125000 0.682057
vt 0.191640 0.656250
vt 0.180705 0.687500
vt 0.201960 0.718381
vt 0.796463 0.656250
vt 0.771370 0.671875
vt 0.638178 0.656250
vt 0.625000 0.658658
vt 0.375000 0.660016
vt 0.375000 0.031250
vt 0.125000 0.718217
vt 0.625000 0.031250
vt 0.875000 0.718750
vt 0.625000 0.735143
vt 0.625000 0.734348
vt 0.625000 0.718750
vt 0.625000 0.735425
vt 0.375000 0.718750
vt 0.831339 0.656250
vt 0.166444 0.656250
vt 0.740724 0.750000
vt 0.749308 0.750000
vt 0.525550 0.738110
vt 0.625000 0.738110
vt 0.375000 0.734348
vt 0.125000 0.734139
vt 0.375000 0.015595
vt 0.625000 0.015595
vt 0.875000 0.734405
vt 0.723318 0.750000
vt 0.625000 0.750000
vt 0.709499 0.750000
vt 0.281234 0.750000
vt 0.235704 0.750000
s 0
usemtl Material_white
f 26/47/1 25/46/1 22/40/1 16/30/1 17/32/1
f 7/17/2 51/87/2 58/95/2
f 8/18/3 47/81/3 60/100/3
f 38/67/4 36/64/4 4/12/4 3/10/4
f 58/94/5 59/96/5 9/19/5 7/16/5
f 41/72/6 53/89/6 47/80/6 8/18/6
f 40/71/7 48/82/7 49/84/7
f 43/75/8 41/72/8 8/18/8 10/21/8
f 3/10/9 4/13/9 63/105/9 65/107/9
f 27/48/10 19/34/10 29/51/10 31/54/10
f 15/28/14 18/33/14 28/49/14 20/36/14 32/55/14
f 22/41/15 21/38/15 15/29/15 16/31/15
f 17/32/16 16/30/16 30/52/16 19/34/16 27/48/16
f 25/45/17 24/43/17 21/38/17 22/41/17
f 23/42/18 26/47/18 17/32/18 18/33/18
f 14/27/19 13/26/19 26/47/19 23/42/19
f 11/22/20 76/123/20 14/27/20 23/42/20 24/44/20
f 13/26/22 73/120/22 12/25/22 25/46/22 26/47/22
f 34/59/23 31/54/23 35/60/23
f 24/44/24 23/42/24 18/33/24 15/28/24 21/39/24
f 30/53/25 32/56/25 20/37/25 19/35/25
f 16/31/26 15/29/26 32/56/26 30/53/26
f 18/33/27 17/32/27 27/48/27 28/49/27
f 28/49/28 27/48/28 31/54/28 34/59/28
f 20/36/29 28/49/29 34/59/29 33/58/29
f 19/35/30 20/37/30 33/57/30 29/50/30
f 29/50/31 33/57/31 35/61/31
f 33/58/33 34/59/33 35/63/33
f 5/14/34 6/15/34 39/69/34 37/66/34
f 3/11/35 65/108/35 64/106/35 38/68/35
f 6/15/36 56/92/36 54/90/36 39/69/36
f 40/70/37 42/73/37 36/64/37 38/67/37
f 7/16/38 9/19/38 44/76/38 42/73/38 40/70/38 49/83/38
f 37/66/39 39/69/39 55/91/39 57/93/39
f 38/68/2 64/106/2 48/82/2 40/71/2
f 39/69/40 54/90/40 55/91/40
f 44/77/41 45/78/41 42/74/41
f 47/80/43 45/78/43 44/77/43 9/20/43
f 49/84/44 48/82/44 51/86/44 7/17/44
f 48/82/2 50/85/2 37/66/2 57/93/2 43/75/2
f 51/86/45 48/82/45 43/75/45 10/21/45
f 47/80/47 53/89/47 45/78/47
f 55/91/48 54/90/48 52/88/48 53/89/48 41/72/48
f 54/90/49 56/92/49 71/118/49 52/88/49
f 10/21/52 8/18/52 60/100/52 61/102/52
f 47/80/54 9/20/54 59/97/54
f 51/86/55 10/21/55 61/102/55
f 62/103/56 36/65/56 42/74/56 45/78/56
f 62/103/57 63/105/57 4/13/57 36/65/57
f 48/82/2 64/106/2 50/85/2
f 65/107/9 63/104/9 72/119/9 71/118/9 56/92/9 6/15/9 5/14/9
f 64/106/58 65/108/58 5/14/58 37/66/58 50/85/58
f 61/102/61 60/99/61 68/113/61
f 99/165/73 90/150/73 89/148/73 95/158/73 98/164/73
f 80/135/2 130/212/2 124/205/2
f 81/136/74 132/217/74 120/199/74
f 111/185/75 3/10/75 4/12/75 109/182/75
f 130/211/76 80/134/76 82/137/76 131/213/76
f 114/190/77 81/136/77 120/198/77 126/207/77
f 113/189/78 122/202/78 121/200/78
f 116/193/79 83/139/79 81/136/79 114/190/79
f 100/166/80 104/172/80 102/169/80 92/152/80
f 88/146/84 105/173/84 93/154/84 101/167/84 91/151/84
f 95/159/85 89/149/85 88/147/85 94/156/85
f 90/150/86 100/166/86 92/152/86 103/170/86 89/148/86
f 98/163/87 95/159/87 94/156/87 97/161/87
f 96/160/88 91/151/88 90/150/88 99/165/88
f 87/145/89 96/160/89 99/165/89 86/144/89
f 84/140/90 97/162/90 96/160/90 87/145/90 144/234/90
f 86/144/92 99/165/92 98/164/92 85/143/92 141/231/92
f 107/177/93 108/178/93 104/172/93
f 97/162/94 94/157/94 88/146/94 91/151/94 96/160/94
f 103/171/95 92/153/95 93/155/95 105/174/95
f 89/149/96 103/171/96 105/174/96 88/147/96
f 91/151/97 101/167/97 100/166/97 90/150/97
f 101/167/98 107/177/98 104/172/98 100/166/98
f 93/154/99 106/176/99 107/177/99 101/167/99
f 92/153/100 102/168/100 106/175/100 93/155/100
f 102/168/101 108/179/101 106/175/101
f 106/176/103 108/181/103 107/177/103
f 5/14/104 110/184/104 112/187/104 6/15/104
f 3/11/105 111/186/105 135/221/105 65/108/105
f 6/15/106 112/187/106 127/208/106 56/92/106
f 113/188/107 111/185/107 109/182/107 115/191/107
f 80/134/108 122/201/108 113/188/108 115/191/108 117/194/108 82/137/108
f 110/184/109 129/210/109 128/209/109 112/187/109
f 111/186/2 113/189/2 121/200/2 135/221/2
f 112/187/110 128/209/110 127/208/110
f 117/195/111 115/192/111 118/196/111
f 120/198/113 82/138/113 117/195/113 118/196/113
f 122/202/114 80/135/114 124/204/114 121/200/114
f 121/200/2 116/193/2 129/210/2 110/184/2 123/203/2
f 124/204/115 83/139/115 116/193/115 121/200/115
f 120/198/117 118/196/117 126/207/117
f 128/209/118 114/190/118 126/207/118 125/206/118 127/208/118
f 127/208/119 125/206/119 71/118/119 56/92/119
f 83/139/122 133/219/122 132/217/122 81/136/122
f 120/198/124 131/214/124 82/138/124
f 124/204/125 133/219/125 83/139/125
f 134/220/126 118/196/126 115/192/126 109/183/126
f 134/220/127 109/183/127 4/13/127 63/105/127
f 121/200/2 123/203/2 135/221/2
f 135/221/128 123/203/128 110/184/128 5/14/128 65/108/128
f 133/219/131 138/226/131 132/216/131
usemtl Material_blue
f 1/1/11 77/124/11 76/123/11 11/22/11
f 2/7/12 74/121/12 13/26/12 14/27/12
f 1/2/13 11/23/13 12/24/13
f 12/24/21 11/23/21 24/43/21 25/45/21
f 69/115/51 70/116/51 59/96/51 58/94/51
f 58/95/53 51/87/53 77/124/53 1/3/53 69/114/53
f 60/98/60 66/109/60 75/122/60
f 1/4/62 70/116/62 69/115/62
f 68/113/63 60/101/63 67/111/63 2/6/63
f 2/7/64 75/122/64 74/121/64
f 57/93/65 55/91/65 41/72/65 43/75/65
f 66/110/66 60/100/66 47/81/66 59/97/66 70/117/66 1/5/66
f 73/120/67 66/110/67 1/5/67 12/25/67
f 60/101/68 75/122/68 67/112/68
f 74/121/69 75/122/69 66/110/69 73/120/69 13/26/69
f 76/123/70 77/124/70 2/8/70 14/27/70
f 77/124/71 51/87/71 61/102/71 68/113/71 2/8/71
f 67/112/72 75/122/72 2/9/72
f 78/125/81 84/140/81 144/234/81 145/235/81
f 79/131/82 87/145/82 86/144/82 142/232/82
f 78/126/83 85/142/83 84/141/83
f 85/142/91 98/163/91 97/161/91 84/141/91
f 139/228/121 130/211/121 131/213/121 140/229/121
f 130/212/123 139/227/123 78/127/123 145/235/123 124/205/123
f 132/215/130 143/233/130 136/222/130
f 78/128/132 139/228/132 140/229/132
f 138/226/133 79/130/133 137/224/133 132/218/133
f 79/131/134 142/232/134 143/233/134
f 129/210/135 116/193/135 114/190/135 128/209/135
f 136/223/136 78/129/136 140/230/136 131/214/136 120/199/136 132/217/136
f 141/231/137 85/143/137 78/129/137 136/223/137
f 132/218/138 137/225/138 143/233/138
f 142/232/139 86/144/139 141/231/139 136/223/139 143/233/139
f 144/234/140 87/145/140 79/132/140 145/235/140
f 145/235/141 79/132/141 138/226/141 133/219/141 124/205/141
f 137/225/142 79/133/142 143/233/142
usemtl black
f 45/78/42 46/79/42 62/103/42
f 53/89/46 52/88/46 46/79/46 45/78/46
f 46/79/50 72/119/50 63/104/50 62/103/50
f 52/88/59 71/118/59 72/119/59 46/79/59
f 118/196/112 134/220/112 119/197/112
f 126/207/116 118/196/116 119/197/116 125/206/116
f 119/197/120 134/220/120 63/104/120 72/119/120
f 125/206/129 119/197/129 72/119/129 71/118/129
usemtl yellow
f 31/54/32 29/51/32 35/62/32
f 104/172/102 108/180/102 102/169/102
